Coordinates
version=1
nRows=16
nColumns=28
inDegrees=yes

Units are S.I. units (second, meters, Newtons, ...)
Angles are in degrees.

endheader
time	pelvis_tilt	pelvis_list	pelvis_rotation	pelvis_tx	pelvis_ty	pelvis_tz	hip_flexion_r	hip_adduction_r	hip_rotation_r	knee_angle_r	ankle_angle_r	subtalar_angle_r	mtp_angle_r	hip_flexion_l	hip_adduction_l	hip_rotation_l	knee_angle_l	socket_flexion	socket_adduction	socket_rotation	socket_tx	socket_ty	socket_tz	foot_flex	lumbar_extension	lumbar_bending	lumbar_rotation
      0.54583333	     -2.15534227	     -4.06009935	     12.82065257	     -0.04421923	      0.96125924	      0.21240631	     27.87917216	      3.24445350	     -5.98994783	    -10.97114088	      6.37870656	    -20.86787208	     -6.93012324	    -14.26165592	     -3.70685774	     13.19625193	    -14.50705202	      0.00000000	      0.00000000	      0.00000000	      0.00000000	     -0.00401491	      0.00000000	      9.32661315	     -6.05695012	      4.46636413	    -20.57361876
      0.55000000	     -2.29644452	     -3.83359939	     12.60929127	     -0.04437433	      0.96098011	      0.21282903	     28.32626321	      2.99857627	     -6.22594548	    -11.59728668	      6.42546204	    -20.57657863	     -6.72199268	    -14.16221722	     -3.39167922	     12.99454098	    -14.52489794	      0.00000000	      0.00000000	      0.00000000	      0.00000000	     -0.00381847	      0.00000000	      9.38697274	     -6.00293485	      4.11481310	    -20.23083031
      0.55416667	     -2.23883345	     -3.95331684	     12.75869593	     -0.03792934	      0.95983186	      0.21225195	     28.42901668	      3.17531805	     -5.99744400	    -12.26255649	      6.17348593	    -20.55541483	     -6.67632694	    -14.28252491	     -3.54965617	     13.12775022	    -15.06617490	      0.00000000	      0.00000000	      0.00000000	      0.00000000	     -0.00375145	      0.00000000	      9.32479844	     -5.96581826	      4.37701186	    -20.29532797
      0.55833333	     -2.31232526	     -4.02089987	     12.72885859	     -0.03155526	      0.95834047	      0.21198203	     28.97975790	      3.25396786	     -6.19003991	    -13.50786427	      5.40239958	    -20.84928247	     -6.42535064	    -14.25635653	     -3.57442314	     13.03423564	    -15.68217293	      0.00000000	      0.00000000	      0.00000000	      0.00000000	     -0.00369698	      0.00000000	      9.38058344	     -5.79661645	      4.55357838	    -20.57414726
      0.56250000	     -2.23207864	     -4.12136549	     12.85774192	     -0.02524103	      0.95723912	      0.21146667	     29.10695725	      3.41840484	     -5.91526260	    -14.28455449	      5.08864076	    -20.80315902	     -6.35718033	    -14.33379308	     -3.70122493	     13.15636572	    -16.33009409	      0.00000000	      0.00000000	      0.00000000	      0.00000000	     -0.00364067	      0.00000000	      9.27552834	     -5.81710770	      4.80540733	    -20.59003439
      0.56666667	     -2.15001338	     -4.19968020	     12.84492564	     -0.01893023	      0.95606822	      0.21122456	     29.36800525	      3.58299919	     -5.81761890	    -15.30634285	      4.58387519	    -20.80618821	     -6.27507039	    -14.39841711	     -3.76286191	     13.14467266	    -17.05876242	      0.00000000	      0.00000000	      0.00000000	      0.00000000	     -0.00358639	      0.00000000	      9.21542417	     -5.85115572	      5.02835347	    -20.63285645
      0.57083333	     -2.88954581	     -4.11484794	     12.59816808	     -0.01256120	      0.95368576	      0.21139062	     30.69815503	      3.45549486	     -5.60910625	    -16.69680705	      2.51920240	    -22.43587605	     -1.20626801	    -13.55153990	     -3.40774902	     12.94652371	    -17.95986398	      0.00000000	      0.00000000	      0.00000000	      0.00000000	     -0.00337648	      0.00000000	      9.19317436	     -4.95903284	      4.80686856	    -20.59844274
      0.57500000	     -2.74449591	     -4.22406596	     12.65954173	     -0.00619558	      0.95276468	      0.21098171	     30.77506650	      3.64806139	     -5.40100346	    -17.53356396	      2.20148935	    -22.32357043	     -1.20260778	    -13.61441940	     -3.51749329	     13.00829235	    -18.75870238	      0.00000000	      0.00000000	      0.00000000	      0.00000000	     -0.00326438	      0.00000000	      8.97543468	     -5.05228675	      5.08359209	    -20.58721785
      0.57916667	     -2.60310170	     -4.31637168	     12.63997442	      0.00020589	      0.95184052	      0.21075765	     30.93217692	      3.83328344	     -5.30306736	    -18.51668445	      1.76619817	    -22.21424032	     -1.20034933	    -13.64684165	     -3.58989055	     12.94246417	    -19.62080753	      0.00000000	      0.00000000	      0.00000000	      0.00000000	     -0.00305554	      0.00000000	      8.77065836	     -5.14967133	      5.33149648	    -20.58305518
      0.58333333	     -3.15046027	     -4.15443615	     12.32773513	      0.00653695	      0.94980647	      0.21106763	     32.10013214	      3.67729258	     -5.16087463	    -20.09379733	      0.95613486	    -22.21413299	     -0.52800742	    -12.93489083	     -3.16941023	     12.67654788	    -20.65523060	      0.00000000	      0.00000000	      0.00000000	      0.00000000	     -0.00273282	      0.00000000	      8.63929809	     -4.52255870	      5.05540557	    -20.26997264
      0.58750000	     -3.03317681	     -4.26859251	     12.24665628	      0.01311403	      0.94892603	      0.21096204	     32.26074032	      3.89365783	     -5.10932652	    -21.06042840	      0.52732236	    -22.11766333	     -0.41134873	    -12.89697061	     -3.24132816	     12.52837759	    -21.59691064	      0.00000000	      0.00000000	      0.00000000	      0.00000000	     -0.00249242	      0.00000000	      8.34821413	     -4.56928393	      5.29803354	    -20.27038141
      0.59166667	     -3.10633356	     -4.29546572	     12.11948830	      0.01960793	      0.94772349	      0.21093028	     32.70810881	      3.97344324	     -5.02030879	    -22.21411966	     -0.01791973	    -22.01775131	     -0.04669638	    -12.61392142	     -3.17236824	     12.26513843	    -22.62566359	      0.00000000	      0.00000000	      0.00000000	      0.00000000	     -0.00222894	      0.00000000	      8.04914872	     -4.40616139	      5.40101852	    -20.14069001
      0.59583333	     -2.93945611	     -4.43774366	     12.15508966	      0.02612318	      0.94714639	      0.21067526	     32.69506869	      4.21454146	     -4.82671232	    -22.98834320	     -0.20272485	    -21.92977347	      0.00483482	    -12.49519828	     -3.29561011	     12.20151619	    -23.71235480	      0.00000000	      0.00000000	      0.00000000	      0.00000000	     -0.00187508	      0.00000000	      7.58995792	     -4.49867573	      5.70595876	    -20.10704008
      0.60000000	     -2.80050238	     -4.56923172	     12.07908244	      0.03262121	      0.94644811	      0.21062962	     32.81273682	      4.43903687	     -4.80548452	    -23.94339854	     -0.49339618	    -21.83881384	      0.07961036	    -12.31362019	     -3.38713534	     11.92020752	    -24.87825663	      0.00000000	      0.00000000	      0.00000000	      0.00000000	     -0.00152849	      0.00000000	      7.18880650	     -4.58409019	      5.96660885	    -20.06410245
      0.60416667	     -3.37147329	     -4.54341307	     11.76314609	      0.03914833	      0.94459724	      0.21104042	     33.87022995	      4.43085862	     -4.64246282	    -25.31011205	     -0.82118291	    -21.64824055	      1.03097467	    -11.33396484	     -3.11796120	     11.48915472	    -26.22039312	      0.00000000	      0.00000000	      0.00000000	      0.00000000	     -0.00109666	      0.00000000	      6.80402689	     -3.87219045	      5.82968703	    -19.62962834
      0.60833333	     -3.16305654	     -4.69954175	     11.75329961	      0.04569246	      0.94422715	      0.21096094	     33.79333461	      4.69192812	     -4.57766817	    -26.07935091	     -0.96194911	    -21.57674229	      1.08620496	    -11.13222603	     -3.27109242	     11.25185505	    -27.47286990	      0.00000000	      0.00000000	      0.00000000	      0.00000000	     -0.00063506	      0.00000000	      6.23836301	     -4.01717529	      6.12574529	    -19.61419569
